HIERARCHY
ROOT hip
{
	OFFSET 0.000000 0.000000 0.000000 
	CHANNELS 6 Xposition Yposition Zposition Xrotation Zrotation Yrotation
	JOINT abdomen
	{
		OFFSET 0.000000 3.402643 0.000000 
		CHANNELS 3 Xrotation Zrotation Yrotation
		JOINT chest
		{
			OFFSET 0.000000 8.438565 -0.680529 
			CHANNELS 3 Xrotation Zrotation Yrotation
			JOINT neck
			{
				OFFSET 0.000000 10.207942 -0.272212 
				CHANNELS 3 Xrotation Zrotation Yrotation
				JOINT head
				{
					OFFSET 0.000000 3.130431 0.000000 
					CHANNELS 3 Xrotation Zrotation Yrotation
					End Site
					{
						OFFSET 0.000000 3.130435 0.000000 
					}
				}
			}
			JOINT lCollar
			{
				OFFSET 3.470700 6.669187 -0.816635 
				CHANNELS 3 Yrotation Zrotation Xrotation
				JOINT lShldr
				{
					OFFSET 3.198488 0.000000 0.000000 
					CHANNELS 3 Zrotation Yrotation Xrotation
					JOINT lForeArm
					{
						OFFSET 10.139888 0.000000 0.000000 
						CHANNELS 3 Yrotation Zrotation Xrotation
						JOINT lHand
						{
							OFFSET 8.370511 0.000000 0.000000 
							CHANNELS 3 Zrotation Yrotation Xrotation
							End Site
							{
								OFFSET 4.083176 0.000000 0.000000 
							}
						}
					}
				}
			}
			JOINT rCollar
			{
				OFFSET -3.470700 6.669187 -0.816635 
				CHANNELS 3 Yrotation Zrotation Xrotation
				JOINT rShldr
				{
					OFFSET -3.198488 0.000000 0.000000 
					CHANNELS 3 Zrotation Yrotation Xrotation
					JOINT rForeArm
					{
						OFFSET -10.139888 0.000000 0.000000 
						CHANNELS 3 Yrotation Zrotation Xrotation
						JOINT rHand
						{
							OFFSET -8.370511 0.000000 0.000000 
							CHANNELS 3 Zrotation Yrotation Xrotation
							End Site
							{
								OFFSET -4.083176 0.000000 0.000000 
							}
						}
					}
				}
			}
		}
	}
	JOINT lThigh
	{
		OFFSET 5.308129 -1.633274 1.361059 
		CHANNELS 3 Xrotation Zrotation Yrotation
		JOINT lShin
		{
			OFFSET -2.041588 -20.007561 0.000000 
			CHANNELS 3 Xrotation Zrotation Yrotation
			JOINT lFoot
			{
				OFFSET 0.000000 -19.190928 -1.224953 
				CHANNELS 3 Xrotation Yrotation Zrotation
				End Site
				{
					OFFSET 0.000000 -2.449906 4.627600 
				}
			}
		}
	}
	JOINT rThigh
	{
		OFFSET -5.308129 -1.633274 1.361059 
		CHANNELS 3 Xrotation Zrotation Yrotation
		JOINT rShin
		{
			OFFSET 2.041588 -20.007561 0.000000 
			CHANNELS 3 Xrotation Zrotation Yrotation
			JOINT rFoot
			{
				OFFSET 0.000000 -19.190928 -1.224953 
				CHANNELS 3 Xrotation Yrotation Zrotation
				End Site
				{
					OFFSET 0.000000 -2.449906 4.627600 
				}
			}
		}
	}
}
MOTION
Frames: 9
Frame Time: 0.033333
-26.205145 52.073147 47.242580 11.767578 19.648439 -30.797493 31.143217 -11.517883 7.420300 -24.375000 3.515625 1.259766 51.063168 8.107644 2.471410 -91.982422 -20.878902 -19.042967 2.000000 -2.000000 0.000000 -88.427734 28.134766 -19.575470 -62.179829 -1.418827 -2.407802 15.413664 58.964375 9.523719 -2.000000 2.000000 0.000000 33.115234 41.513676 -100.078125 75.807144 -0.065154 -2.963476 9.903162 -23.536041 -54.953232 -23.692301 -12.779470 1.774522 12.252851 -5.311290 -1.523753 -3.869310 8.197515 -0.522404 -8.947289 -22.524393 -41.333797 21.642902 4.757734 1.980783 -10.669197 -2.916186 12.963744 
-26.338915 52.057384 47.205086 11.357421 19.306639 -31.699219 31.051796 -11.740211 7.062135 -24.365234 3.691406 1.455078 51.063168 8.107644 2.471410 -91.337891 -20.830080 -18.974609 2.000000 -2.000000 0.000000 -88.847656 28.330082 -19.428959 -62.001595 -1.247421 -2.319776 15.112178 59.418697 9.297797 -2.000000 2.000000 0.000000 34.716797 42.197266 -98.535156 75.626457 -0.055820 -2.786929 10.140970 -23.519257 -54.584942 -23.500376 -12.077705 1.964268 12.791496 -5.292242 -1.557832 -4.286828 8.562742 -1.059852 -9.150638 -22.226591 -40.785496 21.813572 4.403018 1.932862 -10.507473 -2.896943 12.602504 
-26.479860 52.041637 47.149429 10.761719 18.828125 -32.490238 30.759361 -11.802405 6.806431 -24.365234 3.867188 1.474610 51.063168 8.107644 2.471410 -90.820313 -20.556639 -18.593748 2.000000 -2.000000 0.000000 -88.847656 28.330082 -19.428959 -62.001595 -1.247421 -2.319776 14.681505 59.548664 9.188165 -2.000000 2.000000 0.000000 36.933594 42.158203 -96.669922 75.122719 0.196383 -2.919013 10.053588 -22.961555 -54.203266 -23.080936 -11.707266 2.212014 13.139617 -5.290982 -1.607018 -4.476764 8.831137 -1.259771 -8.840936 -21.612995 -40.608150 21.986748 4.279577 1.905643 -10.365539 -2.714393 12.287967 
-26.614441 52.049500 47.083351 10.380859 18.515625 -33.356277 30.643162 -11.873678 6.547296 -24.179689 4.042970 1.503906 51.063168 8.107644 2.471410 -90.126953 -20.341795 -18.232424 2.000000 -2.000000 0.000000 -88.603516 28.525391 -19.013670 -61.992313 -1.287552 -2.337211 14.790119 59.354950 9.400023 -2.000000 2.000000 0.000000 39.619141 41.923828 -94.153633 75.135445 0.368329 -3.016626 10.094827 -22.727638 -53.742203 -22.675898 -10.973127 2.224843 13.490892 -5.281154 -1.616396 -4.310213 8.912655 -1.640577 -8.526507 -21.277258 -39.970901 22.157793 4.269138 1.916693 -10.141213 -2.588287 11.977190 
-26.758158 52.065262 47.011387 9.980469 18.173826 -34.108284 30.350571 -11.932347 6.282334 -24.179689 4.042970 1.503906 51.063168 8.107644 2.471410 -89.384766 -19.990232 -18.017580 2.000000 -2.000000 0.000000 -88.642578 28.701172 -18.813669 -61.827984 -1.428010 -2.397490 15.321955 59.304844 10.261095 -2.000000 2.000000 0.000000 42.412106 41.748047 -91.328125 74.778679 0.386851 -2.829770 10.371877 -22.643002 -53.541668 -22.158777 -10.445799 2.241274 13.503669 -5.633658 -1.496566 -4.429413 9.663918 -1.789244 -8.204116 -20.895931 -39.409920 22.156927 4.376416 1.964788 -9.976954 -2.376929 11.481720 
-26.921207 52.057384 46.922623 9.394530 17.675781 -34.892578 30.243593 -12.003504 6.023084 -24.179689 4.218750 1.513672 51.063168 8.107644 2.471410 -88.583984 -19.482422 -17.718102 2.000000 -2.000000 0.000000 -88.710938 29.062502 -18.525391 -61.819168 -1.107421 -2.435695 14.870524 59.336681 9.555197 -2.000000 2.000000 0.000000 45.332031 41.054688 -88.046875 74.595093 0.215318 -2.908140 11.522456 -22.686689 -53.815868 -21.713659 -10.174596 2.469855 13.488786 -5.680575 -1.354414 -4.578483 9.801076 -1.665883 -8.058249 -20.620535 -38.754459 21.974546 4.396528 1.935053 -9.768565 -2.709454 11.297972 
-27.098600 52.088909 46.836411 9.003905 17.177734 -35.791019 29.950417 -12.062062 5.758013 -24.169924 4.394532 1.533203 51.063168 8.107644 2.471410 -87.802734 -18.964842 -17.239500 2.000000 -2.000000 0.000000 -88.857422 29.775393 -18.911163 -61.819168 -1.107421 -2.435695 15.709174 59.721622 10.062603 -2.000000 2.000000 0.000000 48.886719 40.195313 -84.358932 74.595360 0.235381 -2.916757 12.812772 -22.909552 -53.979034 -21.086151 -9.431442 2.625644 13.482579 -5.721150 -1.357555 -4.414018 9.902937 -1.636084 -7.219320 -20.158798 -38.218338 21.822403 4.758650 2.005045 -9.915417 -2.729514 10.631651 
-27.247297 52.120403 46.773121 8.632813 16.865234 -36.637791 29.866573 -12.056812 5.347928 -24.169922 4.570313 1.552734 51.063168 8.107644 2.471410 -86.845703 -18.486326 -16.601566 2.000000 -2.000000 0.000000 -89.296875 30.351561 -19.345701 -61.994957 -1.097672 -2.436263 16.206911 60.287075 9.913103 -2.000000 2.000000 0.000000 52.138672 39.775391 -80.765236 74.580994 -0.017954 -2.765182 13.528127 -23.340118 -53.606670 -20.550982 -8.923434 2.975153 13.313972 -5.722539 -1.274853 -4.131344 10.360046 -2.227837 -6.740362 -19.721312 -37.413239 21.303589 4.778035 1.800681 -9.543325 -2.760428 10.645096 
-27.426311 52.191311 46.690376 8.046876 16.357424 -37.438656 29.572216 -12.118657 5.091886 -23.994143 4.736328 1.767578 51.063168 8.107644 2.471410 -85.683594 -17.900389 -16.123047 2.000000 -2.000000 0.000000 -89.667969 31.035156 -20.258636 -62.003769 -1.428010 -2.397490 17.213482 60.568951 10.349780 -2.000000 2.000000 0.000000 56.992188 38.798828 -76.947006 74.243256 0.234252 -2.897266 13.039605 -24.084877 -52.860561 -19.681931 -8.259216 3.284260 12.960462 -5.750908 -1.246398 -4.018035 10.155957 -2.133480 -6.457119 -18.979063 -36.406033 20.945454 4.790255 1.918990 -9.346704 -2.766916 10.650507 
